<svg width="450" height="288" viewBox="0 0 450 288" fill="none" xmlns="http://www.w3.org/2000/svg">
<path d="M156.472 120H137.429V80.3906H100.295V120H81.252V27.5781H100.295V65.0293H137.429V27.5781H156.472V120ZM226.486 100.957H193.098L186.75 120H166.501L200.905 27.5781H218.552L253.146 120H232.897L226.486 100.957ZM198.239 85.5322H221.345L209.729 50.9375L198.239 85.5322ZM332.937 89.2139C332.217 99.1585 328.535 106.987 321.892 112.7C315.29 118.413 306.573 121.27 295.739 121.27C283.89 121.27 274.559 117.292 267.746 109.336C260.975 101.338 257.59 90.3776 257.59 76.4551V70.8057C257.59 61.9189 259.156 54.0902 262.287 47.3193C265.419 40.5485 269.883 35.3646 275.681 31.7676C281.521 28.1283 288.291 26.3086 295.993 26.3086C306.657 26.3086 315.248 29.165 321.765 34.8779C328.282 40.5908 332.048 48.61 333.063 58.9355H314.021C313.555 52.9688 311.883 48.6523 309.006 45.9863C306.171 43.278 301.833 41.9238 295.993 41.9238C289.646 41.9238 284.885 44.209 281.711 48.7793C278.579 53.3073 276.971 60.3532 276.887 69.917V76.8994C276.887 86.8864 278.389 94.1862 281.394 98.7988C284.44 103.411 289.222 105.718 295.739 105.718C301.621 105.718 306.001 104.385 308.879 101.719C311.799 99.0104 313.47 94.8421 313.894 89.2139H332.937ZM374.387 82.9297L364.484 93.5938V120H345.441V27.5781H364.484V69.4727L372.863 57.9834L396.413 27.5781H419.836L387.019 68.6475L420.788 120H398.127L374.387 82.9297Z" fill="url(#paint0_linear)"/>
<path d="M156.472 120V121H157.472V120H156.472ZM137.429 120H136.429V121H137.429V120ZM137.429 80.3906H138.429V79.3906H137.429V80.3906ZM100.295 80.3906V79.3906H99.2949V80.3906H100.295ZM100.295 120V121H101.295V120H100.295ZM81.252 120H80.252V121H81.252V120ZM81.252 27.5781V26.5781H80.252V27.5781H81.252ZM100.295 27.5781H101.295V26.5781H100.295V27.5781ZM100.295 65.0293H99.2949V66.0293H100.295V65.0293ZM137.429 65.0293V66.0293H138.429V65.0293H137.429ZM137.429 27.5781V26.5781H136.429V27.5781H137.429ZM156.472 27.5781H157.472V26.5781H156.472V27.5781ZM156.472 119H137.429V121H156.472V119ZM138.429 120V80.3906H136.429V120H138.429ZM137.429 79.3906H100.295V81.3906H137.429V79.3906ZM99.2949 80.3906V120H101.295V80.3906H99.2949ZM100.295 119H81.252V121H100.295V119ZM82.252 120V27.5781H80.252V120H82.252ZM81.252 28.5781H100.295V26.5781H81.252V28.5781ZM99.2949 27.5781V65.0293H101.295V27.5781H99.2949ZM100.295 66.0293H137.429V64.0293H100.295V66.0293ZM138.429 65.0293V27.5781H136.429V65.0293H138.429ZM137.429 28.5781H156.472V26.5781H137.429V28.5781ZM155.472 27.5781V120H157.472V27.5781H155.472ZM226.486 100.957L227.434 100.638L227.205 99.957H226.486V100.957ZM193.098 100.957V99.957H192.377L192.149 100.641L193.098 100.957ZM186.75 120V121H187.471L187.699 120.316L186.75 120ZM166.501 120L165.564 119.651L165.062 121H166.501V120ZM200.905 27.5781V26.5781H200.21L199.968 27.2293L200.905 27.5781ZM218.552 27.5781L219.488 27.2276L219.245 26.5781H218.552V27.5781ZM253.146 120V121H254.589L254.083 119.649L253.146 120ZM232.897 120L231.95 120.319L232.179 121H232.897V120ZM198.239 85.5322L197.29 85.217L196.853 86.5322H198.239V85.5322ZM221.345 85.5322V86.5322H222.735L222.293 85.2139L221.345 85.5322ZM209.729 50.9375L210.676 50.6192L209.723 47.7804L208.779 50.6223L209.729 50.9375ZM226.486 99.957H193.098V101.957H226.486V99.957ZM192.149 100.641L185.801 119.684L187.699 120.316L194.046 101.273L192.149 100.641ZM186.75 119H166.501V121H186.75V119ZM167.438 120.349L201.842 27.927L199.968 27.2293L165.564 119.651L167.438 120.349ZM200.905 28.5781H218.552V26.5781H200.905V28.5781ZM217.615 27.9287L252.21 120.351L254.083 119.649L219.488 27.2276L217.615 27.9287ZM253.146 119H232.897V121H253.146V119ZM233.845 119.681L227.434 100.638L225.539 101.276L231.95 120.319L233.845 119.681ZM198.239 86.5322H221.345V84.5322H198.239V86.5322ZM222.293 85.2139L210.676 50.6192L208.781 51.2558L220.397 85.8505L222.293 85.2139ZM208.779 50.6223L197.29 85.217L199.188 85.8474L210.678 51.2527L208.779 50.6223ZM332.937 89.2139L333.934 89.286L334.011 88.2139H332.937V89.2139ZM321.892 112.7L321.24 111.942L321.237 111.944L321.892 112.7ZM267.746 109.336L266.983 109.982L266.987 109.986L267.746 109.336ZM262.287 47.3193L261.379 46.8996L262.287 47.3193ZM275.681 31.7676L276.208 32.6173L276.21 32.6163L275.681 31.7676ZM321.765 34.8779L321.105 35.6299L321.765 34.8779ZM333.063 58.9355V59.9355H334.167L334.059 58.8377L333.063 58.9355ZM314.021 58.9355L313.024 59.0133L313.095 59.9355H314.021V58.9355ZM309.006 45.9863L308.315 46.7094L308.321 46.7147L308.326 46.7199L309.006 45.9863ZM281.711 48.7793L280.89 48.2089L280.888 48.2105L281.711 48.7793ZM276.887 69.917L275.887 69.9081V69.917H276.887ZM281.394 98.7988L280.556 99.3446L280.559 99.35L281.394 98.7988ZM308.879 101.719L309.559 102.452L309.559 102.452L308.879 101.719ZM313.894 89.2139V88.2139H312.966L312.896 89.1389L313.894 89.2139ZM331.939 89.1417C331.236 98.8607 327.653 106.427 321.24 111.942L322.544 113.458C329.418 107.548 333.198 99.4564 333.934 89.286L331.939 89.1417ZM321.237 111.944C314.858 117.464 306.392 120.27 295.739 120.27V122.27C306.753 122.27 315.722 119.362 322.546 113.456L321.237 111.944ZM295.739 120.27C284.14 120.27 275.103 116.389 268.506 108.685L266.987 109.986C274.016 118.195 283.641 122.27 295.739 122.27V120.27ZM268.509 108.69C261.935 100.924 258.59 90.2195 258.59 76.4551H256.59C256.59 90.5357 260.015 101.751 266.983 109.982L268.509 108.69ZM258.59 76.4551V70.8057H256.59V76.4551H258.59ZM258.59 70.8057C258.59 62.0366 260.135 54.3556 263.195 47.7391L261.379 46.8996C258.177 53.8247 256.59 61.8013 256.59 70.8057H258.59ZM263.195 47.7391C266.252 41.1284 270.592 36.1017 276.208 32.6173L275.153 30.9178C269.174 34.6275 264.585 39.9686 261.379 46.8996L263.195 47.7391ZM276.21 32.6163C281.872 29.0873 288.455 27.3086 295.993 27.3086V25.3086C288.127 25.3086 281.169 27.1692 275.152 30.9189L276.21 32.6163ZM295.993 27.3086C306.473 27.3086 314.81 30.1115 321.105 35.6299L322.424 34.126C315.685 28.2186 306.842 25.3086 295.993 25.3086V27.3086ZM321.105 35.6299C327.395 41.1433 331.072 48.9078 332.068 59.0334L334.059 58.8377C333.023 48.3122 329.168 40.0383 322.424 34.126L321.105 35.6299ZM333.063 57.9355H314.021V59.9355H333.063V57.9355ZM315.017 58.8578C314.542 52.7681 312.824 48.1604 309.685 45.2528L308.326 46.7199C310.943 49.1442 312.568 53.1694 313.024 59.0133L315.017 58.8578ZM309.697 45.2632C306.602 42.3069 301.966 40.9238 295.993 40.9238V42.9238C301.7 42.9238 305.739 44.2491 308.315 46.7094L309.697 45.2632ZM295.993 40.9238C289.371 40.9238 284.279 43.3284 280.89 48.2089L282.532 49.3497C285.491 45.0896 289.92 42.9238 295.993 42.9238V40.9238ZM280.888 48.2105C277.586 52.9851 275.972 60.2746 275.887 69.9081L277.887 69.9258C277.971 60.4318 279.572 53.6295 282.533 49.3481L280.888 48.2105ZM275.887 69.917V76.8994H277.887V69.917H275.887ZM275.887 76.8994C275.887 86.9439 277.39 94.4843 280.556 99.3446L282.231 98.253C279.388 93.8881 277.887 86.8289 277.887 76.8994H275.887ZM280.559 99.35C283.826 104.296 288.956 106.718 295.739 106.718V104.718C289.489 104.718 285.054 102.527 282.228 98.2477L280.559 99.35ZM295.739 106.718C301.75 106.718 306.422 105.358 309.559 102.452L308.199 100.985C305.58 103.411 301.492 104.718 295.739 104.718V106.718ZM309.559 102.452C312.729 99.5119 314.457 95.0638 314.891 89.2888L312.896 89.1389C312.484 94.6204 310.869 98.5089 308.199 100.986L309.559 102.452ZM313.894 90.2139H332.937V88.2139H313.894V90.2139ZM374.387 82.9297L375.229 82.3904L374.533 81.3031L373.654 82.2492L374.387 82.9297ZM364.484 93.5938L363.752 92.9133L363.484 93.2011V93.5938H364.484ZM364.484 120V121H365.484V120H364.484ZM345.441 120H344.441V121H345.441V120ZM345.441 27.5781V26.5781H344.441V27.5781H345.441ZM364.484 27.5781H365.484V26.5781H364.484V27.5781ZM364.484 69.4727H363.484V72.541L365.292 70.0619L364.484 69.4727ZM372.863 57.9834L372.073 57.3711L372.064 57.3825L372.055 57.3942L372.863 57.9834ZM396.413 27.5781V26.5781H395.923L395.622 26.9658L396.413 27.5781ZM419.836 27.5781L420.617 28.2024L421.915 26.5781H419.836V27.5781ZM387.019 68.6475L386.237 68.0232L385.784 68.5903L386.183 69.1969L387.019 68.6475ZM420.788 120V121H422.643L421.624 119.451L420.788 120ZM398.127 120L397.285 120.539L397.58 121H398.127V120ZM373.654 82.2492L363.752 92.9133L365.217 94.2742L375.12 83.6101L373.654 82.2492ZM363.484 93.5938V120H365.484V93.5938H363.484ZM364.484 119H345.441V121H364.484V119ZM346.441 120V27.5781H344.441V120H346.441ZM345.441 28.5781H364.484V26.5781H345.441V28.5781ZM363.484 27.5781V69.4727H365.484V27.5781H363.484ZM365.292 70.0619L373.671 58.5726L372.055 57.3942L363.676 68.8834L365.292 70.0619ZM373.654 58.5957L397.204 28.1905L395.622 26.9658L372.073 57.3711L373.654 58.5957ZM396.413 28.5781H419.836V26.5781H396.413V28.5781ZM419.055 26.9539L386.237 68.0232L387.8 69.2717L420.617 28.2024L419.055 26.9539ZM386.183 69.1969L419.953 120.549L421.624 119.451L387.854 68.098L386.183 69.1969ZM420.788 119H398.127V121H420.788V119ZM398.969 119.461L375.229 82.3904L373.545 83.469L397.285 120.539L398.969 119.461Z" fill="url(#paint1_linear)"/>
<g filter="url(#filter0_d)">
<path d="M30.1071 254.739C30.7639 250.309 34.8914 234.305 42.4896 206.724C53.4664 165.008 60.8083 136.994 64.5152 122.681C65.1512 120.172 65.3361 118.162 65.0697 116.652C64.6189 114.095 62.7085 113.114 59.3385 113.708C54.8064 114.507 51.2277 116.636 48.6024 120.095C45.9565 123.437 44.1993 127.401 43.3305 131.988C42.578 136.554 42.591 141.045 43.3696 145.461C43.7999 147.901 44.5241 150.649 45.5422 153.705C41.7074 154.381 38.3991 153.287 35.6174 150.422C32.8153 147.441 31.0658 143.976 30.3692 140.025C29.5291 135.26 30.5106 130.294 33.3139 125.127C36.0968 119.843 40.0312 115.315 45.1174 111.543C50.2993 107.634 55.6211 105.197 61.0829 104.234C65.615 103.435 69.559 104.058 72.915 106.102C76.3667 108.01 79.4011 111.968 82.0183 117.977C84.7517 123.965 87.1122 132.595 89.0997 143.867C90.5341 152.002 92.1181 164.723 93.852 182.031C95.1353 194.745 96.0843 202.846 96.699 206.332C98.3411 195.258 101.221 182.709 105.338 168.683C109.455 154.657 113.688 141.629 118.037 129.599C122.481 117.432 126.034 108.358 128.694 102.378C130.041 99.1447 131.261 96.8926 132.355 95.6213C133.428 94.2338 134.953 93.3659 136.928 93.0176C138.555 92.7307 141.225 92.9191 144.936 93.5826C143.493 98.9894 142.265 109.69 141.251 125.685C140.237 141.68 139.831 158.407 140.034 175.865C140.332 193.186 141.393 207.018 143.217 217.361C143.852 220.963 144.498 223.605 145.154 225.287C145.81 226.968 146.572 228.571 147.439 230.096C148.444 231.716 149.192 232.902 149.684 233.654C144.688 234.535 140.778 234.446 137.955 233.386C135.152 232.442 132.999 230.425 131.496 227.336C130.013 224.362 128.759 219.97 127.735 214.159C125.686 202.539 124.734 190.006 124.879 176.56C125.141 163.094 126.052 146.518 127.614 126.832C122.137 138.581 116.731 154.812 111.396 175.523C106.062 196.234 102.389 213.117 100.377 226.173L99.2185 226.736C98.4665 227.228 97.6838 227.546 96.8703 227.69C93.0355 228.366 90.0896 226.609 88.0327 222.418C86.092 218.207 84.2713 211.279 82.5706 201.634C81.5256 195.707 80.006 185.731 78.012 171.704C75.895 156.98 74.2423 146.248 73.0539 139.508L71.0662 129.254L60.5502 174.603C55.5572 196.572 51.7304 212.584 49.07 222.638C46.5053 232.556 43.7153 240.178 40.7001 245.502C37.8216 250.922 34.2906 254.001 30.1071 254.739ZM176.633 219.017C171.868 219.857 168.105 218.903 165.344 216.155C162.699 213.386 160.967 209.678 160.147 205.029C159.287 200.149 159.383 194.919 160.437 189.342C161.606 183.744 163.511 178.915 166.15 174.855C168.789 170.795 171.793 168.468 175.163 167.873C176.558 167.628 178.441 167.775 180.813 168.315C180.568 162.847 181.648 158.103 184.055 154.084C186.578 150.044 190.628 147.533 196.206 146.549C200.854 145.73 204.518 146.462 207.197 148.745C209.856 150.912 211.554 154.088 212.292 158.271C213.009 162.338 212.725 167.181 211.439 172.8C210.269 178.398 208.461 184.109 206.013 189.933C207.53 190.384 209.218 190.446 211.078 190.118C214.332 189.544 217.633 187.884 220.983 185.136C224.312 182.272 226.576 178.459 227.772 173.694L231.31 175.407C229.853 181.415 227.289 186.241 223.618 189.884C220.063 193.506 216.077 195.707 211.661 196.485C208.988 196.957 205.991 196.946 202.669 196.453C199.271 202.325 195.302 207.338 190.763 211.493C186.223 215.649 181.513 218.157 176.633 219.017ZM199.441 187.317C201.588 182.505 203.181 177.611 204.221 172.635C205.377 167.638 205.627 163.281 204.971 159.562C204.069 154.449 201.992 152.179 198.738 152.753C197.227 153.019 195.792 154.051 194.431 155.849C193.071 157.646 192.093 159.916 191.498 162.657C190.882 165.281 190.841 168.105 191.373 171.126C191.845 173.799 192.853 176.796 194.397 180.119C195.921 183.325 197.602 185.724 199.441 187.317ZM181.34 209.021C183.432 208.652 185.784 207.039 188.395 204.182C191.007 201.325 193.506 197.829 195.892 193.694C188.244 189.052 183.251 181.125 180.915 169.915C179.644 170.858 178.338 173.305 176.997 177.255C175.657 181.206 174.679 185.512 174.063 190.174C173.447 194.836 173.426 198.794 174 202.048C174.943 207.393 177.389 209.718 181.34 209.021ZM288.358 197.16C283.942 197.939 280.319 197.439 277.49 195.662C274.66 193.884 272.928 191.194 272.292 187.592C272.026 186.081 271.951 184.297 272.068 182.239C272.3 180.161 272.533 178.083 272.766 176.005C273.45 170.373 273.567 166.279 273.116 163.722C272.706 161.398 271.828 159.815 270.482 158.974C269.115 158.017 267.56 157.692 265.816 158C259.657 159.086 254.127 164.075 249.224 172.967C244.302 181.743 239.283 192.693 234.168 205.817C229.171 206.698 225.097 205.679 221.946 202.76L222.747 198.125C226.673 180.299 227.929 167.376 226.515 159.358C227.261 158.148 228.433 156.983 230.033 155.862C231.612 154.625 233.215 153.863 234.842 153.576C236.817 153.228 238.41 153.426 239.62 154.171C240.83 154.917 241.578 156.103 241.865 157.73C242.418 160.867 242.342 166.213 241.637 173.766C245.637 165.871 250.036 159.224 254.836 153.825C259.751 148.405 264.94 145.214 270.402 144.251C275.05 143.431 278.939 144.423 282.07 147.226C285.179 149.912 287.124 153.464 287.902 157.88C288.353 160.436 288.435 162.938 288.147 165.385C287.976 167.812 287.507 170.59 286.741 173.721C285.626 178.95 285.284 182.785 285.714 185.225C286.022 186.968 286.654 188.175 287.611 188.845C288.568 189.515 289.627 189.747 290.789 189.542C294.624 188.866 298.288 185.524 301.782 179.516C305.372 173.371 308.332 166.379 310.664 158.539L314.058 160.457C311.575 170.84 308.269 179.271 304.14 185.75C300.126 192.21 294.866 196.013 288.358 197.16ZM332.962 193.609C325.641 194.9 319.599 193.928 314.835 190.694C310.071 187.461 307.146 182.764 306.06 176.605C304.871 169.865 305.857 162.203 309.016 153.618C312.155 144.916 316.807 137.326 322.974 130.847C329.12 124.251 335.621 120.349 342.477 119.14C346.08 118.505 349.265 118.902 352.033 120.331C354.781 121.644 356.524 124.392 357.261 128.575C358.245 134.153 357.027 139.82 353.609 145.575C350.17 151.214 345.299 156.206 338.996 160.553C332.809 164.879 326.243 168.074 319.298 170.137C319.27 171.34 319.39 172.697 319.656 174.208C320.189 177.229 321.535 180.107 323.695 182.842C325.971 185.556 329.897 186.421 335.475 185.437C342.564 184.187 349.267 180.07 355.584 173.085C361.997 165.963 366.711 157.703 369.727 148.305L373.705 150.479C370.901 161.757 365.704 171.36 358.116 179.288C350.643 187.196 342.259 191.97 332.962 193.609ZM320.078 163.35C324.179 162.147 328.531 159.642 333.132 155.836C337.849 152.008 341.64 147.685 344.504 142.867C347.349 137.932 348.412 133.431 347.695 129.364C347.47 128.085 347.083 127.255 346.537 126.872C345.99 126.489 345.194 126.39 344.148 126.574C340.778 127.168 337.346 129.451 333.852 133.422C330.455 137.256 327.501 141.911 324.992 147.386C322.482 152.861 320.844 158.182 320.078 163.35ZM387.771 226.361C384.518 226.935 381.554 226.439 378.882 224.873C376.23 223.423 374.576 220.839 373.92 217.121C373.121 212.589 374.079 208.166 376.793 203.853C379.624 199.52 383.08 195.675 387.161 192.32C391.242 188.964 396.588 184.966 403.199 180.326C404.293 174.98 405.484 165.424 406.771 151.658C403.633 158.322 400.327 163.698 396.854 167.785C393.497 171.852 389.553 174.285 385.02 175.084C381.186 175.76 377.553 175.202 374.121 173.411C370.69 171.619 368.534 168.225 367.653 163.228C366.956 159.277 367.005 154.116 367.799 147.746C368.572 141.259 369.837 135.524 371.595 130.541C373.332 125.442 375.13 122.729 376.989 122.401C378.151 122.196 380.007 122.528 382.557 123.396C385.086 124.148 386.705 125.181 387.416 126.493C385.741 129.904 384.192 135.389 382.769 142.949C381.463 150.489 381.168 156.292 381.885 160.359C382.643 164.659 384.707 166.512 388.077 165.918C391.563 165.303 394.982 162.603 398.332 157.819C401.682 153.034 404.694 147.351 407.367 140.769C407.456 139.914 407.467 137.936 407.399 134.832C407.331 131.729 407.916 128.93 409.153 126.435C410.37 123.824 412.49 122.252 415.511 121.719C415.976 121.637 417.876 121.542 421.212 121.433C421.608 124.359 421.33 130.938 420.379 141.171C419.543 151.383 418.202 161.444 416.355 171.356C421.639 168.028 426.36 163.541 430.517 157.895C434.79 152.229 437.693 145.247 439.225 136.949L442.618 138.867C441.592 147.315 438.539 154.803 433.459 161.33C428.496 167.837 422.428 173.52 415.257 178.379C412.07 192.241 408.285 203.393 403.902 211.834C399.656 220.371 394.279 225.213 387.771 226.361ZM384.891 220.219C387.331 219.789 390.087 216.727 393.157 211.033C396.247 205.456 398.941 197.971 401.239 188.579C395.094 193.138 389.939 197.881 385.775 202.809C381.728 207.716 380.042 212.087 380.719 215.922C380.944 217.2 381.371 218.263 382 219.111C382.765 220.054 383.729 220.424 384.891 220.219Z" fill="#D440E7"/>
</g>
<defs>
<filter id="filter0_d" x="30.0786" y="92.8877" width="419.54" height="168.851" filterUnits="userSpaceOnUse" color-interpolation-filters="sRGB">
<feFlood flood-opacity="0" result="BackgroundImageFix"/>
<feColorMatrix in="SourceAlpha" type="matrix" values="0 0 0 0 0 0 0 0 0 0 0 0 0 0 0 0 0 0 127 0"/>
<feOffset dx="5" dy="5"/>
<feGaussianBlur stdDeviation="1"/>
<feColorMatrix type="matrix" values="0 0 0 0 0.101961 0 0 0 0 0.894118 0 0 0 0 0.984314 0 0 0 1 0"/>
<feBlend mode="normal" in2="BackgroundImageFix" result="effect1_dropShadow"/>
<feBlend mode="normal" in="SourceGraphic" in2="effect1_dropShadow" result="shape"/>
</filter>
<linearGradient id="paint0_linear" x1="246.5" y1="0" x2="246.5" y2="152" gradientUnits="userSpaceOnUse">
<stop stop-color="#9B038F"/>
<stop offset="0.447917" stop-color="#F56CFE"/>
<stop offset="0.609375" stop-color="#6A28C7"/>
<stop offset="0.682292" stop-color="#160D47"/>
</linearGradient>
<linearGradient id="paint1_linear" x1="246.5" y1="0" x2="246.5" y2="152" gradientUnits="userSpaceOnUse">
<stop stop-color="#C230BF"/>
<stop offset="0.453125" stop-color="#ED63F4"/>
<stop offset="0.541667" stop-color="#7F32CF"/>
<stop offset="1" stop-color="#160D47"/>
</linearGradient>
</defs>
</svg>
